<?xml version="1.0" encoding="UTF-8"?>
<svg xmlns="http://www.w3.org/2000/svg" viewBox="0 0 1200 880" preserveAspectRatio="xMidYMid meet" font-family="Segoe UI, Helvetica Neue, Arial, sans-serif">
  <defs>
    <marker id="arrow-orange" markerWidth="10" markerHeight="10" refX="9" refY="3" orient="auto" markerUnits="strokeWidth">
      <path d="M0,0 L0,6 L9,3 z" fill="#ED731B"/>
    </marker>
    <marker id="arrow-blue" markerWidth="10" markerHeight="10" refX="9" refY="3" orient="auto" markerUnits="strokeWidth">
      <path d="M0,0 L0,6 L9,3 z" fill="#003862"/>
    </marker>
    <marker id="arrow-grey" markerWidth="10" markerHeight="10" refX="9" refY="3" orient="auto" markerUnits="strokeWidth">
      <path d="M0,0 L0,6 L9,3 z" fill="#888"/>
    </marker>
    <filter id="shadow" x="-20%" y="-20%" width="140%" height="140%">
      <feDropShadow dx="2" dy="3" stdDeviation="3" flood-opacity="0.18"/>
    </filter>
  </defs>

  <!-- Title -->
  <text x="600" y="38" text-anchor="middle" font-size="22" font-weight="bold" fill="#003862">VPS Financial Suite — Modul-Übersicht &amp; Datenflüsse</text>
  <text x="600" y="60" text-anchor="middle" font-size="12" fill="#666">Wie die 11 Module zusammenwirken — von der Konfiguration über die Buchung bis zur Auswertung</text>

  <!-- ===== Layer 1: Fundament ===== -->
  <rect x="40" y="85" width="1120" height="140" fill="#f0f6fc" stroke="#b8d4ea" stroke-width="1.5" rx="8"/>
  <text x="55" y="108" font-size="12" font-weight="bold" fill="#003862" letter-spacing="1">FUNDAMENT &amp; KONFIGURATION</text>

  <!-- Financial Suite (Hauptmodul) -->
  <rect x="320" y="125" width="260" height="80" rx="8" fill="#003862" filter="url(#shadow)"/>
  <text x="450" y="155" text-anchor="middle" fill="#ffffff" font-size="15" font-weight="bold">Financial Suite</text>
  <text x="450" y="173" text-anchor="middle" fill="#ffffff" font-size="11">Hauptmodul · Wizard · Netting</text>
  <text x="450" y="192" text-anchor="middle" fill="#ED731B" font-size="11" font-style="italic">Mandant · Kontenplan · Steuern</text>

  <!-- JE Text Setter -->
  <rect x="620" y="125" width="260" height="80" rx="8" fill="#003862" filter="url(#shadow)"/>
  <text x="750" y="155" text-anchor="middle" fill="#ffffff" font-size="15" font-weight="bold">Buchungstext-Konfigurator</text>
  <text x="750" y="173" text-anchor="middle" fill="#ffffff" font-size="11">JE Text Setter</text>
  <text x="750" y="192" text-anchor="middle" fill="#ED731B" font-size="11" font-style="italic">Einheitliche Buchungstexte</text>

  <!-- ===== Layer 2: Buchungserzeugung ===== -->
  <rect x="40" y="265" width="1120" height="170" fill="#fff7f0" stroke="#ffd9b8" stroke-width="1.5" rx="8"/>
  <text x="55" y="288" font-size="12" font-weight="bold" fill="#ED731B" letter-spacing="1">DATENERFASSUNG &amp; BUCHUNGSERZEUGUNG</text>

  <!-- Wechselkurs -->
  <rect x="60" y="305" width="240" height="110" rx="8" fill="#ffffff" stroke="#003862" stroke-width="2" filter="url(#shadow)"/>
  <text x="180" y="332" text-anchor="middle" fill="#003862" font-size="14" font-weight="bold">Wechselkurs-Import</text>
  <text x="180" y="354" text-anchor="middle" fill="#666" font-size="11">EZB · NBP</text>
  <text x="180" y="380" text-anchor="middle" fill="#888" font-size="10">Tägliche Kurse für</text>
  <text x="180" y="395" text-anchor="middle" fill="#888" font-size="10">Fremdwährungs-Buchungen</text>

  <!-- Bank Import -->
  <rect x="320" y="305" width="240" height="110" rx="8" fill="#ffffff" stroke="#003862" stroke-width="2" filter="url(#shadow)"/>
  <text x="440" y="332" text-anchor="middle" fill="#003862" font-size="14" font-weight="bold">Kontoauszugs-Import</text>
  <text x="440" y="354" text-anchor="middle" fill="#666" font-size="11">MT940 · CAMT · RegEx-Engine</text>
  <text x="440" y="380" text-anchor="middle" fill="#888" font-size="10">Auto-Zuordnung</text>
  <text x="440" y="395" text-anchor="middle" fill="#888" font-size="10">→ Bank-Buchungen</text>

  <!-- Fast Entry -->
  <rect x="580" y="305" width="240" height="110" rx="8" fill="#ffffff" stroke="#003862" stroke-width="2" filter="url(#shadow)"/>
  <text x="700" y="332" text-anchor="middle" fill="#003862" font-size="14" font-weight="bold">Schnellerfassung</text>
  <text x="700" y="354" text-anchor="middle" fill="#666" font-size="11">Eingangsrechnungen</text>
  <text x="700" y="380" text-anchor="middle" fill="#888" font-size="10">Aus Vorlagen / Favoriten</text>
  <text x="700" y="395" text-anchor="middle" fill="#888" font-size="10">→ Eingangs-Belege</text>

  <!-- Pro-Rata -->
  <rect x="840" y="305" width="240" height="110" rx="8" fill="#ffffff" stroke="#003862" stroke-width="2" filter="url(#shadow)"/>
  <text x="960" y="332" text-anchor="middle" fill="#003862" font-size="14" font-weight="bold">Rechnungsabgrenzung</text>
  <text x="960" y="354" text-anchor="middle" fill="#666" font-size="11">Pro-Rata</text>
  <text x="960" y="380" text-anchor="middle" fill="#888" font-size="10">Tagesgenaue Verteilung</text>
  <text x="960" y="395" text-anchor="middle" fill="#888" font-size="10">→ Abgrenzungs-Buchungen</text>

  <!-- ===== Layer 3: SAP B1 Kernsystem ===== -->
  <rect x="40" y="475" width="1120" height="60" fill="#003862" rx="8" filter="url(#shadow)"/>
  <text x="600" y="500" text-anchor="middle" fill="#ffffff" font-size="14" font-weight="bold">SAP Business One — Journalbuchungen, Stammdaten, Belege</text>
  <text x="600" y="520" text-anchor="middle" fill="#ED731B" font-size="11" font-style="italic">Alle Module schreiben in dieselbe Datenbasis</text>

  <!-- ===== Layer 4: DATEV-Schnittstellen ===== -->
  <rect x="40" y="575" width="650" height="170" fill="#f0f6fc" stroke="#b8d4ea" stroke-width="1.5" rx="8"/>
  <text x="55" y="598" font-size="12" font-weight="bold" fill="#003862" letter-spacing="1">DATEV-SCHNITTSTELLEN</text>

  <!-- DATEV Export -->
  <rect x="80" y="615" width="280" height="110" rx="8" fill="#ffffff" stroke="#003862" stroke-width="2" filter="url(#shadow)"/>
  <text x="220" y="643" text-anchor="middle" fill="#003862" font-size="14" font-weight="bold">DATEV-Buchungsexport</text>
  <text x="220" y="665" text-anchor="middle" fill="#666" font-size="11">EXTF-CSV-Dateien</text>
  <text x="220" y="690" text-anchor="middle" fill="#888" font-size="10">Status: Y/N/E/F</text>
  <text x="220" y="705" text-anchor="middle" fill="#888" font-size="10">→ an Steuerberater</text>

  <!-- DATEV Import -->
  <rect x="380" y="615" width="280" height="110" rx="8" fill="#ffffff" stroke="#003862" stroke-width="2" filter="url(#shadow)"/>
  <text x="520" y="643" text-anchor="middle" fill="#003862" font-size="14" font-weight="bold">DATEV-Buchungsimport</text>
  <text x="520" y="665" text-anchor="middle" fill="#666" font-size="11">CSV → Vorerfassung / JE</text>
  <text x="520" y="690" text-anchor="middle" fill="#888" font-size="10">116 DATEV-Felder</text>
  <text x="520" y="705" text-anchor="middle" fill="#888" font-size="10">vom Steuerberater zurück</text>

  <!-- ===== Layer 5: Auswertung ===== -->
  <rect x="710" y="575" width="450" height="170" fill="#fff7f0" stroke="#ffd9b8" stroke-width="1.5" rx="8"/>
  <text x="725" y="598" font-size="12" font-weight="bold" fill="#ED731B" letter-spacing="1">AUSWERTUNG &amp; DASHBOARD</text>

  <!-- Reporting -->
  <rect x="735" y="615" width="200" height="110" rx="8" fill="#ffffff" stroke="#003862" stroke-width="2" filter="url(#shadow)"/>
  <text x="835" y="643" text-anchor="middle" fill="#003862" font-size="14" font-weight="bold">Berichte</text>
  <text x="835" y="665" text-anchor="middle" fill="#666" font-size="11">Crystal Reports</text>
  <text x="835" y="690" text-anchor="middle" fill="#888" font-size="10">BWA · SUSA · OPK</text>
  <text x="835" y="705" text-anchor="middle" fill="#888" font-size="10">Saldenbestätigung u.v.m.</text>

  <!-- Cockpit -->
  <rect x="950" y="615" width="200" height="110" rx="8" fill="#ffffff" stroke="#003862" stroke-width="2" filter="url(#shadow)"/>
  <text x="1050" y="643" text-anchor="middle" fill="#003862" font-size="14" font-weight="bold">Cockpit</text>
  <text x="1050" y="665" text-anchor="middle" fill="#666" font-size="11">Dashboard · Buchungsstapel</text>
  <text x="1050" y="690" text-anchor="middle" fill="#888" font-size="10">Multi-Mandanten-Login</text>
  <text x="1050" y="705" text-anchor="middle" fill="#888" font-size="10">Konsolidiert alle Module</text>

  <!-- ===== Layer 6: UI-Werkzeug (Toolbox) ===== -->
  <rect x="40" y="775" width="1120" height="80" fill="#f8f9fa" stroke="#dee2e6" stroke-width="1.5" stroke-dasharray="6,3" rx="8"/>
  <text x="55" y="795" font-size="12" font-weight="bold" fill="#666" letter-spacing="1">UI-WERKZEUG (in allen SAP-B1-Formularen aktiv)</text>
  <rect x="450" y="805" width="300" height="40" rx="8" fill="#ffffff" stroke="#003862" stroke-width="2" filter="url(#shadow)"/>
  <text x="600" y="830" text-anchor="middle" fill="#003862" font-size="13" font-weight="bold">Werkzeugkasten (Toolbox)</text>

  <!-- ===== Pfeile (Datenflüsse) ===== -->
  <!-- Hauptmodul → alle Buchungs-Module (gestrichelt = Konfiguration) -->
  <path d="M 450 210 L 450 240 L 180 240 L 180 300" fill="none" stroke="#003862" stroke-width="1.5" stroke-dasharray="5,3"/>
  <path d="M 450 240 L 440 240 L 440 300" fill="none" stroke="#003862" stroke-width="1.5" stroke-dasharray="5,3"/>
  <path d="M 450 240 L 700 240 L 700 300" fill="none" stroke="#003862" stroke-width="1.5" stroke-dasharray="5,3"/>
  <path d="M 450 240 L 960 240 L 960 300" fill="none" stroke="#003862" stroke-width="1.5" stroke-dasharray="5,3" marker-end="url(#arrow-blue)"/>

  <!-- JE Text Setter → Pro-Rata, FastEntry (gestrichelt = liefert Texte) -->
  <path d="M 750 210 L 750 250 L 700 250 L 700 300" fill="none" stroke="#ED731B" stroke-width="1.5" stroke-dasharray="3,3" marker-end="url(#arrow-orange)"/>
  <path d="M 750 250 L 960 250 L 960 300" fill="none" stroke="#ED731B" stroke-width="1.5" stroke-dasharray="3,3" marker-end="url(#arrow-orange)"/>

  <!-- Buchungs-Module → SAP B1 Datenbasis (volle Linie = Daten) -->
  <path d="M 180 420 L 180 470" fill="none" stroke="#ED731B" stroke-width="2.5" marker-end="url(#arrow-orange)"/>
  <path d="M 440 420 L 440 470" fill="none" stroke="#ED731B" stroke-width="2.5" marker-end="url(#arrow-orange)"/>
  <path d="M 700 420 L 700 470" fill="none" stroke="#ED731B" stroke-width="2.5" marker-end="url(#arrow-orange)"/>
  <path d="M 960 420 L 960 470" fill="none" stroke="#ED731B" stroke-width="2.5" marker-end="url(#arrow-orange)"/>

  <!-- SAP B1 → DATEV Export -->
  <path d="M 220 540 L 220 610" fill="none" stroke="#ED731B" stroke-width="2.5" marker-end="url(#arrow-orange)"/>
  <!-- DATEV Import → SAP B1 -->
  <path d="M 520 610 L 520 540" fill="none" stroke="#ED731B" stroke-width="2.5" marker-end="url(#arrow-orange)"/>
  <!-- SAP B1 → Berichte -->
  <path d="M 835 540 L 835 610" fill="none" stroke="#ED731B" stroke-width="2.5" marker-end="url(#arrow-orange)"/>
  <!-- SAP B1 → Cockpit -->
  <path d="M 1050 540 L 1050 610" fill="none" stroke="#ED731B" stroke-width="2.5" marker-end="url(#arrow-orange)"/>

  <!-- DATEV Export ↔ DATEV Import (Steuerberater-Loop) -->
  <path d="M 360 660 L 380 660" fill="none" stroke="#003862" stroke-width="1.5" marker-end="url(#arrow-blue)"/>
  <path d="M 380 685 L 360 685" fill="none" stroke="#003862" stroke-width="1.5" marker-end="url(#arrow-blue)"/>

  <!-- Berichte → Cockpit (Cockpit zeigt Berichte) -->
  <path d="M 935 670 L 950 670" fill="none" stroke="#003862" stroke-width="1.5" marker-end="url(#arrow-blue)"/>

  <!-- Toolbox → SAP B1 (gestrichelt = UI-Helper) -->
  <path d="M 600 805 L 600 540" fill="none" stroke="#888" stroke-width="1.5" stroke-dasharray="3,3" marker-end="url(#arrow-grey)"/>

  <!-- ===== Legende ===== -->
  <g transform="translate(60, 760)">
    <line x1="0" y1="-5" x2="25" y2="-5" stroke="#ED731B" stroke-width="2.5" marker-end="url(#arrow-orange)"/>
    <text x="32" y="-1" font-size="10" fill="#666">Datenfluss (Buchungen)</text>

    <line x1="195" y1="-5" x2="220" y2="-5" stroke="#003862" stroke-width="1.5" stroke-dasharray="5,3" marker-end="url(#arrow-blue)"/>
    <text x="227" y="-1" font-size="10" fill="#666">Konfiguration / Stammdaten</text>

    <line x1="410" y1="-5" x2="435" y2="-5" stroke="#ED731B" stroke-width="1.5" stroke-dasharray="3,3" marker-end="url(#arrow-orange)"/>
    <text x="442" y="-1" font-size="10" fill="#666">Liefert Texte</text>

    <line x1="555" y1="-5" x2="580" y2="-5" stroke="#888" stroke-width="1.5" stroke-dasharray="3,3" marker-end="url(#arrow-grey)"/>
    <text x="587" y="-1" font-size="10" fill="#666">UI-Erweiterung</text>
  </g>
</svg>
